<svg width="0" height="0" class="hidden">
  <symbol viewBox="0 0 12 12" fill="none" xmlns="http://www.w3.org/2000/svg" xmlns:xlink="http://www.w3.org/1999/xlink" id="viber">
    <path d="M6.4 6.27C6.27 6.41 6.04 6.41 5.91 6.27L4.31 4.68C4.24 4.61 4.21 4.52 4.21 4.43C4.21 4.34 4.24 4.25 4.31 4.18L4.59 3.9L3.76 3.06L3.07 3.75C2.84 3.98 2.84 4.35 3.07 4.58L6 7.51C6.11 7.62 6.26 7.68 6.42 7.68C6.58 7.68 6.73 7.62 6.84 7.51L7.52 6.83L6.69 5.99L6.4 6.27Z" fill="#5D6C7B" fill-opacity="1.000000" fill-rule="nonzero"/>
    <path d="M11.49 3.73C11.49 2.6 11.05 1.54 10.25 0.74C9.44 -0.06 8.38 -0.5 7.26 -0.5L4.75 -0.5C4.75 -0.5 4.75 -0.5 4.75 -0.5C3.62 -0.5 2.56 -0.06 1.75 0.74C0.95 1.54 0.51 2.6 0.51 3.73L0.51 5.7C0.51 6.58 0.78 7.42 1.28 8.13C1.72 8.76 2.32 9.26 3.02 9.57L3.02 10.7C3.02 11.29 3.35 11.49 3.63 11.5C3.83 11.5 4.03 11.4 4.23 11.2L5.49 9.94L7.26 9.94C8.38 9.94 9.44 9.5 10.25 8.69C11.05 7.89 11.49 6.83 11.49 5.7L11.49 3.73ZM8.27 7.07L7.33 8.01C7.09 8.25 6.77 8.38 6.42 8.38C6.07 8.38 5.75 8.25 5.51 8.01L2.58 5.08C2.07 4.57 2.07 3.75 2.58 3.25L3.51 2.32C3.58 2.25 3.66 2.21 3.76 2.21C3.85 2.21 3.94 2.25 4.01 2.32L5.34 3.65C5.4 3.71 5.44 3.8 5.44 3.9C5.44 3.99 5.4 4.08 5.34 4.14L5.05 4.43L6.15 5.53L6.44 5.25C6.58 5.11 6.8 5.11 6.94 5.25L8.27 6.58C8.33 6.64 8.37 6.73 8.37 6.82C8.37 6.92 8.33 7.01 8.27 7.07ZM5.73 2.91C5.73 2.71 5.89 2.56 6.09 2.56C7.3 2.56 8.3 3.55 8.3 4.77C8.3 4.96 8.14 5.12 7.94 5.12C7.75 5.12 7.59 4.96 7.59 4.77C7.59 3.94 6.92 3.26 6.09 3.26C5.89 3.26 5.73 3.1 5.73 2.91ZM9.45 5.12C9.26 5.12 9.1 4.96 9.1 4.77C9.1 3.96 8.78 3.2 8.22 2.64C7.65 2.07 6.89 1.75 6.09 1.75C5.89 1.75 5.73 1.6 5.73 1.4C5.73 1.21 5.89 1.05 6.09 1.05C7.08 1.05 8.01 1.44 8.71 2.14C9.41 2.84 9.8 3.77 9.8 4.77C9.8 4.96 9.64 5.12 9.45 5.12Z" fill="#5D6C7B" fill-opacity="1.000000" fill-rule="nonzero"/>
  </symbol>
  <symbol viewBox="0 0 12 12" fill="none" xmlns="http://www.w3.org/2000/svg" xmlns:xlink="http://www.w3.org/1999/xlink" id="whatsapp">
    <path d="M5.49 -0.5C2.18 -0.5 -0.5 2.18 -0.5 5.5C-0.5 6.64 -0.17 7.77 0.44 8.73L-0.49 11.15C-0.54 11.28 -0.47 11.43 -0.35 11.48C-0.32 11.49 -0.29 11.49 -0.25 11.49C-0.23 11.49 -0.2 11.49 -0.17 11.48L2.33 10.59C5.14 12.34 8.84 11.48 10.59 8.67C12.34 5.85 11.48 2.16 8.67 0.41C7.71 -0.19 6.61 -0.5 5.49 -0.5Z" fill="#5D6C7B" fill-opacity="1.000000" fill-rule="nonzero"/>
    <path d="M8.35 6.52C8.35 6.52 7.74 6.22 7.36 6.02C6.92 5.8 6.41 6.21 6.17 6.45C5.8 6.31 5.46 6.09 5.17 5.82C4.89 5.53 4.68 5.19 4.53 4.81C4.77 4.57 5.19 4.06 4.97 3.63C4.77 3.25 4.47 2.63 4.47 2.63C4.42 2.55 4.34 2.5 4.24 2.5L3.74 2.5C3.02 2.62 2.49 3.26 2.49 4C2.49 4.78 3.43 6.29 4.07 6.92C4.7 7.55 6.21 8.49 6.99 8.49C7.73 8.5 8.36 7.97 8.49 7.24L8.49 6.74C8.49 6.65 8.44 6.56 8.35 6.52Z" fill="#F7F7F7" fill-opacity="1.000000" fill-rule="nonzero"/>
  </symbol>
  <symbol viewBox="0 0 12 12" fill="none" xmlns="http://www.w3.org/2000/svg" xmlns:xlink="http://www.w3.org/1999/xlink" id="telegram">
    <path d="M4.7 7.09L4.5 9.88C4.79 9.88 4.91 9.76 5.06 9.61L6.39 8.34L9.15 10.36C9.66 10.64 10.01 10.49 10.15 9.89L11.96 1.41L11.96 1.41C12.12 0.66 11.69 0.36 11.2 0.55L0.55 4.62C-0.17 4.91 -0.16 5.31 0.43 5.49L3.15 6.34L9.47 2.39C9.77 2.19 10.04 2.3 9.82 2.49L4.7 7.09Z" fill="#5D6C7B" fill-opacity="1.000000" fill-rule="nonzero"/>
  </symbol>
  <symbol viewBox="0 0 20 20" fill="none" xmlns="http://www.w3.org/2000/svg" xmlns:xlink="http://www.w3.org/1999/xlink" id="balance">
    <path d="M19.41 11.26L18.77 11.26L16.73 6.32C17.02 6.28 17.24 6.04 17.24 5.74C17.24 5.42 16.97 5.15 16.65 5.15L11.61 5.15C11.37 4.49 10.73 4.01 9.98 4.01C9.23 4.01 8.59 4.49 8.35 5.15L3.34 5.15C3.02 5.15 2.75 5.42 2.75 5.74C2.75 6.04 2.97 6.28 3.26 6.32L1.22 11.26L0.58 11.26C0.26 11.26 0 11.52 0 11.84C0 14.13 1.85 15.98 4.13 15.98C6.42 15.98 8.27 14.13 8.27 11.84C8.27 11.52 8.01 11.26 7.69 11.26L7.05 11.26L5.01 6.33L8.35 6.33C8.59 7 9.23 7.47 9.98 7.47C10.73 7.47 11.37 7 11.61 6.33L14.98 6.33L12.94 11.26L12.3 11.26C11.98 11.26 11.72 11.52 11.72 11.84C11.72 14.13 13.57 15.98 15.86 15.98C18.14 15.98 20 14.13 20 11.84C20 11.52 19.73 11.26 19.41 11.26ZM4.13 14.81C2.7 14.81 1.5 13.79 1.22 12.43L7.04 12.43C6.77 13.79 5.57 14.81 4.13 14.81ZM5.78 11.26L2.49 11.26L4.13 7.27L5.78 11.26ZM9.98 6.3C9.67 6.3 9.42 6.05 9.42 5.74C9.42 5.43 9.67 5.18 9.98 5.18C10.29 5.18 10.54 5.43 10.54 5.74C10.54 6.05 10.29 6.3 9.98 6.3ZM15.86 7.27L17.5 11.26L14.21 11.26L15.86 7.27ZM15.86 14.81C14.42 14.81 13.22 13.79 12.95 12.43L18.77 12.43C18.49 13.79 17.29 14.81 15.86 14.81Z" fill="#282739" fill-opacity="1.000000" fill-rule="nonzero"/>
    <path d="M18.19 15.26C17.53 15.72 16.72 15.98 15.86 15.98C14.99 15.98 14.18 15.72 13.52 15.26C13.45 15.21 13.38 15.16 13.31 15.11C13.18 15.01 13.06 14.9 12.95 14.79C12.59 14.44 12.3 14.02 12.09 13.56C11.85 13.04 11.72 12.46 11.72 11.84C11.72 11.54 11.94 11.3 12.24 11.26C12.26 11.26 12.28 11.26 12.3 11.26L12.94 11.26L13.06 10.98L13.29 10.43L13.33 10.33L13.69 9.44L13.81 9.15L14.11 8.43L14.21 8.19L14.23 8.15L14.33 7.91L14.54 7.38L14.59 7.26L14.98 6.33L11.61 6.33C11.39 6.93 10.84 7.39 10.18 7.46C10.12 7.47 10.05 7.47 9.98 7.47C9.92 7.47 9.87 7.47 9.81 7.47C9.13 7.4 8.57 6.94 8.35 6.33L5.01 6.33L5.4 7.26L5.44 7.37L5.66 7.91L5.76 8.15L5.78 8.19L5.88 8.43L6.18 9.15L6.3 9.44L6.66 10.33L6.72 10.45L6.93 10.98L7.05 11.26L7.69 11.26C7.71 11.26 7.73 11.26 7.75 11.26C8.05 11.3 8.27 11.54 8.27 11.84C8.27 12.46 8.14 13.04 7.9 13.56C7.69 14.02 7.4 14.44 7.04 14.79C6.93 14.9 6.81 15.01 6.68 15.11C6.61 15.16 6.54 15.21 6.47 15.26C5.81 15.72 5 15.98 4.13 15.98C3.27 15.98 2.46 15.72 1.8 15.26C1.73 15.21 1.66 15.16 1.59 15.11C1.46 15.01 1.34 14.9 1.22 14.79C0.47 14.04 0 12.99 0 11.84C0 11.52 0.26 11.26 0.58 11.26L1.22 11.26L1.34 10.98L1.73 10.03L1.97 9.44L2.39 8.43L2.49 8.19L2.6 7.91L2.87 7.26L3.26 6.32C3.16 6.31 3.06 6.27 2.99 6.21C2.84 6.1 2.75 5.93 2.75 5.74C2.75 5.42 3.02 5.15 3.34 5.15L8.35 5.15C8.38 5.07 8.42 4.98 8.47 4.9C8.76 4.37 9.33 4.01 9.98 4.01C10.62 4.01 11.19 4.36 11.49 4.88C11.54 4.97 11.58 5.06 11.61 5.15L16.65 5.15C16.97 5.15 17.24 5.42 17.24 5.74C17.24 5.93 17.15 6.1 17 6.21C16.93 6.27 16.83 6.31 16.73 6.32L17.12 7.26L17.39 7.91L17.5 8.19L17.6 8.43L18.02 9.44L18.26 10.03L18.65 10.98L18.77 11.26L19.41 11.26C19.73 11.26 20 11.52 20 11.84C20 12.99 19.52 14.04 18.77 14.79C18.65 14.9 18.53 15.01 18.4 15.11C18.33 15.16 18.26 15.21 18.19 15.26ZM17.23 14.47C16.83 14.68 16.39 14.8 15.91 14.81C15.89 14.81 15.87 14.81 15.86 14.81C15.84 14.81 15.82 14.81 15.8 14.81C15.33 14.8 14.88 14.68 14.48 14.47C13.7 14.06 13.13 13.32 12.95 12.43L18.77 12.43C18.59 13.32 18.01 14.06 17.23 14.47ZM16.71 11.26L17.5 11.26L17.39 10.98L16.63 9.15L16.63 9.15L16.33 8.43L15.86 7.27L15.38 8.43L15.21 8.84L15.08 9.15L14.98 9.39L14.59 10.33L14.33 10.98L14.21 11.26L16.71 11.26ZM3.66 8.43L3.36 9.15L3.36 9.15L2.6 10.98L2.49 11.26L5.78 11.26L5.66 10.98L5.4 10.33L5.01 9.39L4.91 9.15L4.78 8.84L4.61 8.43L4.13 7.27L3.66 8.43ZM2.95 12.43L1.22 12.43C1.4 13.32 1.98 14.06 2.76 14.47C3.16 14.68 3.6 14.8 4.08 14.81C4.1 14.81 4.12 14.81 4.13 14.81C4.15 14.81 4.17 14.81 4.19 14.81C4.66 14.8 5.11 14.68 5.51 14.47C6.29 14.06 6.86 13.32 7.04 12.43L2.95 12.43ZM9.98 6.3C9.67 6.3 9.42 6.05 9.42 5.74C9.42 5.43 9.67 5.18 9.98 5.18C10.29 5.18 10.54 5.43 10.54 5.74C10.54 6.05 10.29 6.3 9.98 6.3Z" fill="#282739" fill-opacity="1.000000" fill-rule="evenodd"/>
  </symbol>
  <symbol viewBox="0 0 20 20" fill="none" xmlns="http://www.w3.org/2000/svg" xmlns:xlink="http://www.w3.org/1999/xlink" id="Heart">
		<path d="M17.99 5.51C17.73 4.9 17.35 4.35 16.88 3.88C16.41 3.42 15.86 3.05 15.25 2.79C14.62 2.53 13.94 2.39 13.26 2.4C12.3 2.4 11.36 2.66 10.55 3.16C10.36 3.28 10.17 3.41 10 3.56C9.82 3.41 9.64 3.28 9.44 3.16C8.63 2.66 7.69 2.4 6.73 2.4C6.04 2.4 5.38 2.53 4.74 2.79C4.13 3.05 3.58 3.42 3.11 3.88C2.64 4.35 2.26 4.9 2 5.51C1.73 6.14 1.59 6.82 1.59 7.51C1.59 8.17 1.73 8.85 1.99 9.54C2.21 10.12 2.52 10.72 2.93 11.33C3.56 12.29 4.44 13.29 5.53 14.3C7.34 15.99 9.12 17.15 9.2 17.2L9.66 17.5C9.86 17.63 10.13 17.63 10.33 17.5L10.79 17.2C10.87 17.15 12.65 15.99 14.46 14.3C15.55 13.29 16.43 12.29 17.06 11.33C17.47 10.72 17.78 10.12 18 9.54C18.26 8.85 18.4 8.17 18.4 7.51C18.4 6.82 18.26 6.14 17.99 5.51ZM10 15.94C10 15.94 3.07 11.46 3.07 7.51C3.07 5.51 4.71 3.89 6.73 3.89C8.16 3.89 9.39 4.69 10 5.86C10.6 4.69 11.84 3.89 13.26 3.89C15.28 3.89 16.92 5.51 16.92 7.51C16.92 11.46 10 15.94 10 15.94Z" fill="#282739" fill-opacity="1.000000" fill-rule="nonzero"/>
  </symbol>
  <symbol viewBox="0 0 20 20" fill="none" xmlns="http://www.w3.org/2000/svg" xmlns:xlink="http://www.w3.org/1999/xlink" id="cart">
		<path d="M19.15 7.25L15 7.25L12.67 1.92C12.54 1.62 12.2 1.49 11.9 1.62C11.6 1.75 11.47 2.09 11.6 2.39L13.72 7.25L6.27 7.25L8.39 2.39C8.52 2.09 8.39 1.75 8.09 1.62C7.79 1.49 7.45 1.62 7.32 1.92L4.99 7.25L0.84 7.25C0.3 7.25 -0.1 7.74 0.02 8.26L2.2 17.77C2.29 18.15 2.63 18.42 3.03 18.42L16.96 18.42C17.36 18.42 17.7 18.15 17.79 17.77L19.97 8.26C20.09 7.74 19.69 7.25 19.15 7.25ZM5.1 9.05C5.02 9.05 4.94 9.03 4.87 9C4.57 8.87 4.44 8.52 4.57 8.23L5.01 7.22L6.28 7.22L5.64 8.69C5.54 8.91 5.33 9.05 5.1 9.05ZM7.07 15.3C7.07 15.62 6.8 15.88 6.48 15.88C6.16 15.88 5.89 15.62 5.89 15.3L5.89 11C5.89 10.68 6.16 10.41 6.48 10.41C6.8 10.41 7.07 10.68 7.07 11L7.07 15.3ZM10.58 15.3C10.58 15.62 10.32 15.88 10 15.88C9.67 15.88 9.41 15.62 9.41 15.3L9.41 11C9.41 10.68 9.67 10.41 10 10.41C10.32 10.41 10.58 10.68 10.58 11L10.58 15.3ZM14.1 15.3C14.1 15.62 13.83 15.88 13.51 15.88C13.19 15.88 12.92 15.62 12.92 15.3L12.92 11C12.92 10.68 13.19 10.41 13.51 10.41C13.83 10.41 14.1 10.68 14.1 11L14.1 15.3ZM15.12 9C15.05 9.03 14.97 9.05 14.89 9.05C14.66 9.05 14.45 8.91 14.35 8.69L13.71 7.22L14.98 7.22L15.42 8.23C15.55 8.52 15.42 8.87 15.12 9Z" fill="#6F73EE" fill-opacity="1.000000" fill-rule="nonzero"/>
  </symbol>
  <symbol viewBox="0 0 15 15" fill="none" xmlns="http://www.w3.org/2000/svg" xmlns:xlink="http://www.w3.org/1999/xlink" id="pin">
		<path d="M11.94 1.84C10.75 0.65 9.17 0 7.5 0C5.82 0 4.24 0.65 3.05 1.84C1.86 3.02 1.21 4.6 1.21 6.28C1.21 7.96 1.86 9.54 3.05 10.73L7.18 14.87C7.27 14.95 7.38 15 7.5 15C7.61 15 7.72 14.95 7.81 14.87L11.94 10.73C13.13 9.54 13.78 7.96 13.78 6.28C13.78 4.6 13.13 3.02 11.94 1.84ZM9.47 8.26C8.94 8.79 8.24 9.08 7.5 9.08C6.75 9.08 6.05 8.79 5.52 8.26C4.99 7.73 4.7 7.03 4.7 6.28C4.7 5.54 4.99 4.84 5.52 4.31C6.05 3.78 6.75 3.49 7.5 3.49C8.24 3.49 8.94 3.78 9.47 4.31C10 4.84 10.29 5.54 10.29 6.28C10.29 7.03 10 7.73 9.47 8.26Z" fill="#FFFFFF" fill-opacity="1.000000" fill-rule="nonzero"/>
  </symbol>
  <symbol viewBox="0 0 16 16" fill="none" xmlns="http://www.w3.org/2000/svg" xmlns:xlink="http://www.w3.org/1999/xlink" id="scooter">
		<path d="M12.94 10.84L10.31 1.86L12.08 1.67C12.44 1.63 12.71 1.3 12.67 0.93C12.63 0.57 12.3 0.3 11.93 0.34L6.84 0.89C6.47 0.93 6.2 1.26 6.25 1.63C6.28 1.97 6.57 2.22 6.91 2.22C6.93 2.22 6.95 2.22 6.98 2.22L8.97 2L11.64 11.18C11.11 11.49 10.72 11.99 10.54 12.58L5.45 12.58C5.15 11.58 4.22 10.84 3.11 10.84C1.76 10.84 0.67 11.92 0.67 13.25C0.67 14.58 1.76 15.65 3.11 15.65C4.22 15.65 5.15 14.92 5.45 13.91L10.54 13.91C10.83 14.92 11.77 15.65 12.88 15.65C14.23 15.65 15.32 14.58 15.32 13.25C15.32 11.94 14.26 10.87 12.94 10.84Z" fill="#FFFFFF" fill-opacity="1.000000" fill-rule="nonzero"/>
  </symbol>
  <symbol viewBox="0 0 16 16" fill="none" xmlns="http://www.w3.org/2000/svg" xmlns:xlink="http://www.w3.org/1999/xlink" id="energy">
		<path d="M12.19 0L6.19 0L3.8 8.63L6.2 8.63L4.16 16L4.88 16L11.83 7.36L8.31 7.36L12.19 0Z" fill="#FFFFFF" fill-opacity="1.000000" fill-rule="nonzero"/>
  </symbol>
  <symbol viewBox="0 0 22 22" fill="none" xmlns="http://www.w3.org/2000/svg" xmlns:xlink="http://www.w3.org/1999/xlink" id="checkcircle">
		<path d="M15.01 7.58L14 7.58C13.79 7.58 13.58 7.68 13.45 7.86L10.07 12.55L8.54 10.43C8.41 10.25 8.21 10.14 7.98 10.14L6.98 10.14C6.84 10.14 6.76 10.3 6.84 10.41L9.51 14.13C9.58 14.21 9.66 14.29 9.76 14.34C9.85 14.38 9.96 14.41 10.07 14.41C10.18 14.41 10.28 14.38 10.38 14.34C10.48 14.29 10.56 14.21 10.62 14.13L15.15 7.85C15.23 7.74 15.15 7.58 15.01 7.58Z" fill="#6F73EE" fill-opacity="1.000000" fill-rule="nonzero"/>
		<path d="M11 1.37C5.68 1.37 1.37 5.68 1.37 11C1.37 16.31 5.68 20.62 11 20.62C16.31 20.62 20.62 16.31 20.62 11C20.62 5.68 16.31 1.37 11 1.37ZM11 18.99C6.58 18.99 3 15.41 3 11C3 6.58 6.58 3 11 3C15.41 3 18.99 6.58 18.99 11C18.99 15.41 15.41 18.99 11 18.99Z" fill="#6F73EE" fill-opacity="1.000000" fill-rule="nonzero"/>
  </symbol>
  <symbol viewBox="0 0 18 18" fill="none" xmlns="http://www.w3.org/2000/svg" xmlns:xlink="http://www.w3.org/1999/xlink" id="accumulator">
		<path d="M16.5 3.75L16.5 3C16.5 2.58 16.16 2.25 15.75 2.25L13.5 2.25C13.08 2.25 12.75 2.58 12.75 3L12.75 3.74L12.53 3.74L12.21 3.43C11.94 3.16 11.55 3 11.15 3L6.84 3C6.44 3 6.05 3.16 5.78 3.43L5.46 3.74L5.25 3.74L5.25 3C5.25 2.58 4.91 2.25 4.5 2.25L2.25 2.25C1.83 2.25 1.5 2.58 1.5 3L1.5 3.74C0.67 3.75 0 4.42 0 5.25L0 14.25C0 15.07 0.67 15.75 1.5 15.75L16.5 15.75C17.32 15.75 18 15.07 18 14.25L18 5.25C18 4.42 17.32 3.75 16.5 3.75ZM4.12 7.5L2.62 7.5C2.41 7.5 2.25 7.33 2.25 7.12C2.25 6.91 2.41 6.75 2.62 6.75L4.12 6.75C4.33 6.75 4.5 6.91 4.5 7.12C4.5 7.33 4.33 7.5 4.12 7.5ZM15.37 7.5L15 7.5L15 7.87C15 8.08 14.83 8.25 14.62 8.25C14.41 8.25 14.24 8.08 14.24 7.87L14.24 7.5L13.87 7.5C13.66 7.5 13.49 7.33 13.49 7.12C13.49 6.91 13.66 6.74 13.87 6.74L14.24 6.74L14.24 6.37C14.24 6.16 14.41 5.99 14.62 5.99C14.83 5.99 15 6.16 15 6.37L15 6.75L15.37 6.75C15.58 6.75 15.75 6.91 15.75 7.12C15.75 7.33 15.58 7.5 15.37 7.5Z" fill="#5D6C7B" fill-opacity="1.000000" fill-rule="nonzero"/>
  </symbol>
  <symbol viewBox="0 0 18 18" fill="none" xmlns="http://www.w3.org/2000/svg" xmlns:xlink="http://www.w3.org/1999/xlink" id="power">
		<path d="M14.22 0.26C14.14 0.1 13.97 0 13.79 0L6.72 0C6.51 0 6.32 0.14 6.26 0.34L3.74 8.8C3.69 8.95 3.72 9.1 3.81 9.23C3.9 9.35 4.05 9.42 4.2 9.42L8.16 9.42L6.57 17.42C6.52 17.65 6.65 17.88 6.87 17.96C6.93 17.98 6.98 18 7.04 18C7.21 18 7.37 17.91 7.46 17.75L13.68 6.82C13.77 6.67 13.77 6.49 13.68 6.34C13.6 6.19 13.44 6.1 13.26 6.1L10.46 6.1L14.19 0.76C14.29 0.61 14.3 0.42 14.22 0.26Z" fill="#5D6C7B" fill-opacity="1.000000" fill-rule="nonzero"/>
  </symbol>
  <symbol viewBox="0 0 18 18" fill="none" xmlns="http://www.w3.org/2000/svg" xmlns:xlink="http://www.w3.org/1999/xlink" id="speedometer">
		<path d="M8.47 4.56L8.47 1.23C6.43 1.35 4.53 2.14 3.01 3.49L5.36 5.85C6.25 5.11 7.32 4.66 8.47 4.56Z" fill="#5D6C7B" fill-opacity="1.000000" fill-rule="nonzero"/>
		<path d="M4.61 6.59L2.26 4.24C0.9 5.76 0.11 7.67 0 9.7L3.32 9.7C3.43 8.55 3.88 7.48 4.61 6.59Z" fill="#5D6C7B" fill-opacity="1.000000" fill-rule="nonzero"/>
		<path d="M14.67 9.7L17.99 9.7C17.88 7.67 17.09 5.76 15.73 4.24L13.38 6.59C14.11 7.48 14.56 8.55 14.67 9.7Z" fill="#5D6C7B" fill-opacity="1.000000" fill-rule="nonzero"/>
		<path d="M14.67 10.76C14.49 12.67 13.44 13.84 13.02 14.26C12.82 14.46 12.82 14.8 13.02 15L14.62 16.6C14.72 16.71 14.86 16.76 15 16.76C15.13 16.76 15.27 16.71 15.37 16.6C16.95 15.03 17.87 12.96 18 10.76L14.67 10.76Z" fill="#5D6C7B" fill-opacity="1.000000" fill-rule="nonzero"/>
		<path d="M3.27 13.78C3.41 13.55 3.64 13.2 3.9 12.79C3.63 12.24 3.4 11.57 3.32 10.76L0 10.76C0.12 12.96 1.04 15.03 2.62 16.6C2.72 16.71 2.86 16.76 2.99 16.76C3.13 16.76 3.27 16.71 3.37 16.6L3.92 16.06C3.76 15.98 3.61 15.88 3.48 15.75C2.95 15.22 2.87 14.41 3.27 13.78Z" fill="#5D6C7B" fill-opacity="1.000000" fill-rule="nonzero"/>
		<path d="M9.52 1.23L9.52 4.56C10.67 4.66 11.74 5.11 12.63 5.85L14.98 3.49C13.46 2.14 11.56 1.35 9.52 1.23Z" fill="#5D6C7B" fill-opacity="1.000000" fill-rule="nonzero"/>
		<path d="M7.82 9.06C7.01 9.88 4.45 13.89 4.16 14.35C4.02 14.56 4.05 14.83 4.23 15C4.4 15.18 4.68 15.21 4.88 15.08C5.34 14.79 9.35 12.22 10.17 11.41C10.81 10.76 10.81 9.71 10.17 9.07C9.52 8.42 8.47 8.42 7.82 9.06Z" fill="#5D6C7B" fill-opacity="1.000000" fill-rule="nonzero"/>
  </symbol>
  <symbol viewBox="0 0 18 18" fill="none" xmlns="http://www.w3.org/2000/svg" xmlns:xlink="http://www.w3.org/1999/xlink" id="timer">
		<path d="M14.45 5.35L15.53 4.28L14.46 3.21L13.31 4.37C12.26 3.62 11.03 3.16 9.75 3.03L9.75 1.5L11.25 1.5L11.25 0L6.75 0L6.75 1.5L8.25 1.5L8.25 3.03C6.96 3.16 5.73 3.62 4.68 4.37L3.53 3.21L2.46 4.28L3.54 5.35C2.54 6.42 1.86 7.75 1.61 9.2C1.35 10.64 1.53 12.13 2.11 13.47C2.69 14.82 3.65 15.96 4.87 16.77C6.1 17.57 7.53 18 9 18C10.46 18 11.89 17.57 13.12 16.77C14.34 15.96 15.3 14.82 15.88 13.47C16.46 12.13 16.64 10.64 16.38 9.2C16.13 7.75 15.45 6.42 14.45 5.35ZM9 16.5C7.81 16.5 6.65 16.14 5.66 15.48C4.67 14.82 3.91 13.89 3.45 12.79C3 11.69 2.88 10.49 3.11 9.32C3.34 8.16 3.91 7.09 4.75 6.25C5.59 5.41 6.66 4.84 7.82 4.61C8.99 4.38 10.19 4.5 11.29 4.95C12.39 5.41 13.32 6.17 13.98 7.16C14.64 8.15 15 9.31 15 10.5C14.99 12.09 14.36 13.61 13.24 14.74C12.11 15.86 10.59 16.49 9 16.5Z" fill="#5D6C7B" fill-opacity="1.000000" fill-rule="nonzero"/>
		<path d="M9 6L9 10.5L4.5 10.5C4.5 11.39 4.76 12.26 5.25 13C5.75 13.74 6.45 14.31 7.27 14.65C8.1 14.99 9 15.08 9.87 14.91C10.75 14.73 11.55 14.31 12.18 13.68C12.81 13.05 13.23 12.25 13.41 11.37C13.58 10.5 13.49 9.6 13.15 8.77C12.81 7.95 12.24 7.25 11.5 6.75C10.76 6.26 9.89 6 9 6Z" fill="#5D6C7B" fill-opacity="1.000000" fill-rule="nonzero"/>
  </symbol>
  <symbol viewBox="0 0 20 20" fill="none" xmlns="http://www.w3.org/2000/svg" xmlns:xlink="http://www.w3.org/1999/xlink" id="shopping-cart">
		<path d="M19.7 7.22C19.43 6.89 19.04 6.7 18.61 6.7L14.76 6.7L12.67 1.92C12.54 1.62 12.2 1.49 11.9 1.62C11.6 1.75 11.47 2.09 11.6 2.39L13.48 6.7L6.51 6.7L8.39 2.39C8.52 2.09 8.39 1.75 8.09 1.62C7.79 1.49 7.45 1.62 7.32 1.92L5.23 6.7L1.38 6.7C0.95 6.7 0.56 6.89 0.29 7.22C0.03 7.55 -0.06 7.97 0.03 8.37L2.09 17.36C2.23 17.98 2.78 18.42 3.44 18.42L16.55 18.42C17.2 18.42 17.76 17.98 17.9 17.36L19.96 8.37C20.05 7.97 19.96 7.55 19.7 7.22ZM16.55 17.25L3.44 17.25C3.34 17.25 3.25 17.18 3.23 17.09L1.17 8.11C1.16 8.04 1.18 7.99 1.21 7.95C1.23 7.92 1.29 7.87 1.38 7.87L4.72 7.87L4.57 8.23C4.44 8.52 4.57 8.87 4.87 9C4.94 9.03 5.02 9.05 5.1 9.05C5.33 9.05 5.54 8.92 5.64 8.7L6 7.87L13.99 7.87L14.35 8.7C14.45 8.92 14.66 9.05 14.89 9.05C14.97 9.05 15.05 9.03 15.12 9C15.42 8.87 15.55 8.52 15.42 8.23L15.27 7.87L18.61 7.87C18.7 7.87 18.76 7.92 18.78 7.95C18.81 7.99 18.83 8.04 18.82 8.11L16.76 17.09C16.74 17.18 16.65 17.25 16.55 17.25Z" fill="#6F73EE" fill-opacity="1.000000" fill-rule="nonzero"/>
		<path d="" fill="#6F73EE" fill-opacity="1.000000" fill-rule="evenodd"/>
		<path d="M6.48 10.41C6.16 10.41 5.89 10.68 5.89 11L5.89 15.3C5.89 15.62 6.16 15.88 6.48 15.88C6.8 15.88 7.07 15.62 7.07 15.3L7.07 11C7.07 10.68 6.8 10.41 6.48 10.41Z" fill="#6F73EE" fill-opacity="1.000000" fill-rule="nonzero"/>
		<path d="" fill="#6F73EE" fill-opacity="1.000000" fill-rule="evenodd"/>
		<path d="M10 10.41C9.67 10.41 9.41 10.68 9.41 11L9.41 15.3C9.41 15.62 9.67 15.88 10 15.88C10.32 15.88 10.58 15.62 10.58 15.3L10.58 11C10.58 10.68 10.32 10.41 10 10.41Z" fill="#6F73EE" fill-opacity="1.000000" fill-rule="nonzero"/>
		<path d="" fill="#6F73EE" fill-opacity="1.000000" fill-rule="evenodd"/>
		<path d="M13.51 10.41C13.19 10.41 12.92 10.68 12.92 11L12.92 15.3C12.92 15.62 13.19 15.88 13.51 15.88C13.83 15.88 14.1 15.62 14.1 15.3L14.1 11C14.1 10.68 13.83 10.41 13.51 10.41Z" fill="#6F73EE" fill-opacity="1.000000" fill-rule="nonzero"/>
		<path d="" fill="#6F73EE" fill-opacity="1.000000" fill-rule="evenodd"/>
  </symbol>
  <symbol viewBox="0 0 20 20" fill="none" xmlns="http://www.w3.org/2000/svg" xmlns:xlink="http://www.w3.org/1999/xlink" id="blue-heart">
		<path d="M17.99 5.51C17.73 4.9 17.35 4.35 16.88 3.88C16.41 3.42 15.86 3.05 15.25 2.79C14.62 2.53 13.94 2.39 13.26 2.39C12.3 2.39 11.36 2.66 10.55 3.16C10.36 3.28 10.17 3.41 10 3.56C9.82 3.41 9.64 3.28 9.44 3.16C8.63 2.66 7.69 2.39 6.73 2.39C6.04 2.39 5.38 2.53 4.74 2.79C4.13 3.05 3.58 3.42 3.11 3.88C2.64 4.35 2.26 4.9 2 5.51C1.73 6.14 1.59 6.82 1.59 7.51C1.59 8.17 1.73 8.85 1.99 9.54C2.21 10.12 2.52 10.72 2.93 11.33C3.56 12.29 4.44 13.29 5.53 14.3C7.34 15.99 9.12 17.15 9.2 17.2L9.66 17.5C9.86 17.63 10.13 17.63 10.33 17.5L10.79 17.2C10.87 17.15 12.65 15.99 14.46 14.3C15.55 13.29 16.43 12.29 17.06 11.33C17.47 10.72 17.78 10.12 18 9.54C18.26 8.85 18.4 8.17 18.4 7.51C18.4 6.82 18.26 6.14 17.99 5.51ZM10 15.94C10 15.94 3.07 11.46 3.07 7.51C3.07 5.51 4.71 3.89 6.73 3.89C8.16 3.89 9.39 4.69 10 5.86C10.6 4.69 11.84 3.89 13.26 3.89C15.28 3.89 16.92 5.51 16.92 7.51C16.92 11.46 10 15.94 10 15.94Z" fill="#6F73EE" fill-opacity="1.000000" fill-rule="nonzero"/>
  </symbol>
  <symbol viewBox="0 0 16 16" fill="none" xmlns="http://www.w3.org/2000/svg" xmlns:xlink="http://www.w3.org/1999/xlink" id="check">
	  <path d="M12.46 4L11.64 4C11.53 4 11.42 4.05 11.35 4.14L6.52 10.26L4.2 7.32C4.17 7.28 4.12 7.24 4.07 7.22C4.02 7.19 3.96 7.18 3.91 7.18L3.09 7.18C3.01 7.18 2.97 7.27 3.02 7.33L6.22 11.4C6.37 11.59 6.66 11.59 6.81 11.4L12.54 4.15C12.59 4.09 12.54 4 12.46 4Z" fill="#6F73EE" fill-opacity="1.000000" fill-rule="evenodd"/>
	  <path d="M12.46 3.7L11.64 3.7Q11.57 3.7 11.49 3.71Q11.42 3.73 11.35 3.76Q11.28 3.8 11.22 3.85Q11.16 3.89 11.11 3.95L6.52 9.77L4.44 7.14Q4.39 7.08 4.33 7.03Q4.27 6.98 4.2 6.95Q4.13 6.91 4.06 6.9Q3.99 6.88 3.91 6.88L3.09 6.88Q3.03 6.88 2.97 6.9Q2.92 6.91 2.87 6.94Q2.83 6.97 2.8 7.01Q2.76 7.05 2.73 7.1Q2.71 7.15 2.7 7.21Q2.69 7.26 2.7 7.31Q2.7 7.36 2.72 7.41Q2.74 7.47 2.78 7.52L5.99 11.58Q6.04 11.65 6.11 11.7Q6.17 11.75 6.23 11.78Q6.3 11.81 6.36 11.82Q6.44 11.84 6.52 11.84Q6.6 11.84 6.67 11.82Q6.74 11.81 6.81 11.78Q6.87 11.75 6.93 11.7Q7 11.65 7.05 11.58L12.77 4.33Q12.81 4.29 12.83 4.24Q12.85 4.19 12.86 4.12Q12.86 4.07 12.85 4.02Q12.84 3.97 12.82 3.92Q12.79 3.87 12.76 3.83Q12.72 3.79 12.68 3.76Q12.63 3.73 12.58 3.71Q12.53 3.7 12.46 3.7ZM6.71 10.02L6.52 10.26L6.33 10.02L4.2 7.32C4.17 7.28 4.12 7.24 4.07 7.22C4.02 7.19 3.96 7.18 3.91 7.18L3.09 7.18C3.01 7.18 2.97 7.27 3.02 7.33L3.13 7.48L3.13 7.48L6.22 11.4C6.37 11.59 6.66 11.59 6.81 11.4L12.42 4.29L12.42 4.29L12.54 4.15C12.59 4.09 12.54 4 12.46 4L11.64 4C11.53 4 11.42 4.05 11.35 4.14L6.71 10.02Z" fill="#6F73EE" fill-opacity="1.000000" fill-rule="evenodd"/>
  </symbol>
  <symbol viewBox="0 0 20 20" fill="none" xmlns="http://www.w3.org/2000/svg" xmlns:xlink="http://www.w3.org/1999/xlink" id="close">
	<path d="M3.86 3.16L3.16 3.86L11.29 11.99L3.16 20.13L3.86 20.83L11.99 12.7L20.13 20.83L20.83 20.13L12.7 11.99L20.83 3.86L20.13 3.16L11.99 11.29L3.86 3.16Z" fill="#828A99" fill-opacity="1.000000" fill-rule="nonzero"/>
  </symbol>
  <symbol viewBox="0 0 16 16" fill="none" xmlns="http://www.w3.org/2000/svg" xmlns:xlink="http://www.w3.org/1999/xlink" id="search">
		<path d="M15.95 14.85L10.75 9.65C11.56 8.61 12 7.33 12 6C12 4.39 11.37 2.89 10.24 1.75C9.1 0.62 7.6 0 5.99 0C4.39 0 2.88 0.62 1.75 1.75C0.62 2.89 0 4.39 0 6C0 7.6 0.62 9.1 1.75 10.24C2.88 11.37 4.39 12 5.99 12C7.33 12 8.61 11.56 9.65 10.76L14.84 15.95C14.86 15.96 14.88 15.97 14.9 15.98C14.92 15.99 14.94 16 14.96 16C14.98 16 15 15.99 15.02 15.98C15.04 15.97 15.06 15.96 15.07 15.95L15.95 15.08C15.96 15.06 15.97 15.04 15.98 15.02C15.99 15 16 14.98 16 14.96C16 14.94 15.99 14.92 15.98 14.9C15.97 14.88 15.96 14.86 15.95 14.85ZM9.16 9.16C8.31 10.01 7.19 10.48 5.99 10.48C4.8 10.48 3.67 10.01 2.83 9.16C1.98 8.31 1.51 7.19 1.51 6C1.51 4.8 1.98 3.67 2.83 2.83C3.67 1.98 4.8 1.52 5.99 1.52C7.19 1.52 8.32 1.98 9.16 2.83C10.01 3.67 10.47 4.8 10.47 6C10.47 7.19 10.01 8.32 9.16 9.16Z" fill="#FFFFFF" fill-opacity="1.000000" fill-rule="nonzero"/>
  </symbol>
  <symbol viewBox="0 0 20 20" fill="none" xmlns="http://www.w3.org/2000/svg" xmlns:xlink="http://www.w3.org/1999/xlink" id="vk">
		<path d="M16.59 10.85C16.27 10.44 16.36 10.26 16.59 9.9C16.6 9.89 19.26 6.2 19.54 4.95L19.54 4.95C19.68 4.5 19.54 4.16 18.88 4.16L16.69 4.16C16.14 4.16 15.88 4.45 15.74 4.77C15.74 4.77 14.63 7.44 13.05 9.16C12.55 9.66 12.31 9.82 12.03 9.82C11.9 9.82 11.68 9.66 11.68 9.21L11.68 4.95C11.68 4.41 11.53 4.16 11.07 4.16L7.63 4.16C7.28 4.16 7.07 4.42 7.07 4.65C7.07 5.17 7.86 5.29 7.94 6.75L7.94 9.91C7.94 10.61 7.82 10.74 7.54 10.74C6.79 10.74 4.99 8.06 3.92 5C3.7 4.4 3.49 4.16 2.93 4.16L0.75 4.16C0.12 4.16 0 4.45 0 4.77C0 5.34 0.74 8.17 3.45 11.9C5.26 14.45 7.81 15.83 10.12 15.83C11.52 15.83 11.69 15.52 11.69 14.99C11.69 12.56 11.56 12.33 12.26 12.33C12.58 12.33 13.14 12.49 14.44 13.72C15.92 15.18 16.17 15.83 17 15.83L19.19 15.83C19.81 15.83 20.12 15.52 19.94 14.92C19.53 13.64 16.72 11.03 16.59 10.85Z" fill="#4B729F" fill-opacity="1.000000" fill-rule="nonzero"/>
  </symbol>
  <symbol viewBox="0 0 20 20" fill="none" xmlns="http://www.w3.org/2000/svg" xmlns:xlink="http://www.w3.org/1999/xlink" id="youtube">
		<path d="M0.43 14.89C0.84 16.34 2.09 16.6 2.17 16.65C4.23 17.21 15.75 17.22 17.84 16.65C19.27 16.24 19.53 14.97 19.58 14.89C20.12 11.99 20.16 8.22 19.55 4.94L19.58 5.1C19.17 3.65 17.92 3.39 17.84 3.33C15.81 2.78 4.26 2.76 2.17 3.33C0.74 3.75 0.48 5.02 0.43 5.1C-0.15 8.14 -0.18 11.63 0.43 14.89ZM8 13.04L8 6.96L13.22 10L8 13.04Z" fill="#E53935" fill-opacity="1.000000" fill-rule="nonzero"/>
  </symbol>
  <symbol viewBox="0 0 20 20" fill="none" xmlns="http://www.w3.org/2000/svg" xmlns:xlink="http://www.w3.org/1999/xlink" id="telegram-color">
		<path id="Vector" d="M7.84 12.65L7.51 17.3C7.98 17.3 8.19 17.1 8.44 16.85L10.65 14.73L15.25 18.1C16.1 18.57 16.69 18.32 16.92 17.32L19.94 3.18L19.94 3.18C20.2 1.93 19.49 1.44 18.66 1.75L0.92 8.54C-0.29 9.01 -0.27 9.69 0.72 9.99L5.25 11.4L15.79 4.81C16.28 4.48 16.74 4.66 16.36 4.99L7.84 12.65Z" fill="#039BE5" fill-opacity="1.000000" fill-rule="nonzero"/>
  </symbol>
  <symbol viewBox="0 0 5 9" fill="none" xmlns="http://www.w3.org/2000/svg" xmlns:xlink="http://www.w3.org/1999/xlink" id="arrow-next" >
	  <path d="M-0.78 7.71L2.93 4L-0.78 0.28C-1.07 -0.01 -1.07 -0.48 -0.78 -0.78C-0.48 -1.07 -0.01 -1.07 0.28 -0.78L4.53 3.46C4.82 3.76 4.82 4.23 4.53 4.53L0.28 8.77C-0.01 9.06 -0.48 9.06 -0.78 8.77C-1.07 8.47 -1.07 8 -0.78 7.71Z" fill="#6F73EE" fill-opacity="1.000000" fill-rule="evenodd"/>
  </symbol>
  <symbol viewBox="0 0 5 9" fill="none" xmlns="http://www.w3.org/2000/svg" xmlns:xlink="http://www.w3.org/1999/xlink" id="arrow-prev">
    <path d="M4.77 7.71L1.06 4L4.77 0.28C5.06 -0.01 5.06 -0.48 4.77 -0.78C4.47 -1.07 4 -1.07 3.71 -0.78L-0.54 3.46C-0.83 3.76 -0.83 4.23 -0.54 4.53L3.71 8.77C4 9.06 4.47 9.06 4.77 8.77C5.06 8.47 5.06 8 4.77 7.71Z" fill="#6F73EE" fill-opacity="1.000000" fill-rule="evenodd"/>
    </symbol>


</svg>